# xmcd CD database file
#
# Track frame offsets:
#	150
#	39372
#	66522
#	107549
#	134060
#	173786
#	192907
#	230253
#	255103
#
# Disc length: 3931 seconds
#
# Revision: 0
# Processed by: cddbd v1.5.2PL0 Copyright (c) Steve Scherf et al.
# Submitted via: CDex 1.70beta2
#
DISCID=740f5909
DTITLE=Steve Turre - Rainbow People
DYEAR=1900
DGENRE=Jazz
TTITLE0=Rainbow People
TTITLE1=Forward Vision
TTITLE2=Brother Ray
TTITLE3=Groove Blues
TTITLE4=Midnight In Madrid
TTITLE5=Cleopatra's Needle
TTITLE6=Search For Peace
TTITLE7=Segment
TTITLE8=Para El Comandante
EXTD=
EXTT0=
EXTT1=
EXTT2=
EXTT3=
EXTT4=
EXTT5=
EXTT6=
EXTT7=
EXTT8=
PLAYORDER=
